<svg id="visual" viewBox="0 0 1920 1080" width="1920" height="1080" xmlns="http://www.w3.org/2000/svg" xmlns:xlink="http://www.w3.org/1999/xlink" version="1.1"><rect x="0" y="0" width="1920" height="1080" fill="#ffffff"></rect><path d="M0 873L53.3 877.8C106.7 882.7 213.3 892.3 320 894.8C426.7 897.3 533.3 892.7 640 882.8C746.7 873 853.3 858 960 860C1066.7 862 1173.3 881 1280 877.3C1386.7 873.7 1493.3 847.3 1600 836.8C1706.7 826.3 1813.3 831.7 1866.7 834.3L1920 837L1920 1081L1866.7 1081C1813.3 1081 1706.7 1081 1600 1081C1493.3 1081 1386.7 1081 1280 1081C1173.3 1081 1066.7 1081 960 1081C853.3 1081 746.7 1081 640 1081C533.3 1081 426.7 1081 320 1081C213.3 1081 106.7 1081 53.3 1081L0 1081Z" fill="#0d6efd"></path><path d="M0 897L53.3 902C106.7 907 213.3 917 320 919C426.7 921 533.3 915 640 909.5C746.7 904 853.3 899 960 907.3C1066.7 915.7 1173.3 937.3 1280 936.3C1386.7 935.3 1493.3 911.7 1600 906C1706.7 900.3 1813.3 912.7 1866.7 918.8L1920 925L1920 1081L1866.7 1081C1813.3 1081 1706.7 1081 1600 1081C1493.3 1081 1386.7 1081 1280 1081C1173.3 1081 1066.7 1081 960 1081C853.3 1081 746.7 1081 640 1081C533.3 1081 426.7 1081 320 1081C213.3 1081 106.7 1081 53.3 1081L0 1081Z" fill="#0c63e3"></path><path d="M0 1002L53.3 999.8C106.7 997.7 213.3 993.3 320 991.2C426.7 989 533.3 989 640 986.2C746.7 983.3 853.3 977.7 960 973.2C1066.7 968.7 1173.3 965.3 1280 967.8C1386.7 970.3 1493.3 978.7 1600 990C1706.7 1001.3 1813.3 1015.7 1866.7 1022.8L1920 1030L1920 1081L1866.7 1081C1813.3 1081 1706.7 1081 1600 1081C1493.3 1081 1386.7 1081 1280 1081C1173.3 1081 1066.7 1081 960 1081C853.3 1081 746.7 1081 640 1081C533.3 1081 426.7 1081 320 1081C213.3 1081 106.7 1081 53.3 1081L0 1081Z" fill="#0e59c9"></path></svg>